<svg width="20" height="20" xmlns="http://www.w3.org/2000/svg">

 <g>
  <title>Layer 1</title>
  <path id="svg_1" d="m18.62069,3.44828l-3.44828,0c0,-1.90443 -1.54384,-3.44828 -3.44827,-3.44828c-1.90443,0 -3.44828,1.54385 -3.44828,3.44828l-3.44827,0c-0.76178,0 -1.37931,0.61753 -1.37931,1.37931l0,3.44827c-1.90443,0 -3.44828,1.54385 -3.44828,3.44828c0,1.90443 1.54385,3.44827 3.44828,3.44827l0,3.44828c0,0.76177 0.61753,1.37931 1.37931,1.37931l4.82758,0l0,-1.37931c0,-1.14266 0.92631,-2.06897 2.06897,-2.06897c1.14266,0 2.06896,0.92631 2.06896,2.06897l0,1.37931l4.82759,0c0.76177,0 1.37931,-0.61754 1.37931,-1.37931l0,-4.82759l-1.37931,0c-1.14266,0 -2.06897,-0.9263 -2.06897,-2.06896c0,-1.14266 0.92631,-2.06897 2.06897,-2.06897l1.37931,0l0,-4.82758c0,-0.76178 -0.61754,-1.37931 -1.37931,-1.37931zm-3.44828,8.27586c0,1.90443 1.54385,3.44827 3.44828,3.44827l0,3.44828l-3.44828,0c0,-1.23195 -0.65723,-2.37032 -1.72413,-2.98629c-1.0669,-0.61598 -2.38138,-0.61598 -3.44828,0c-1.0669,0.61597 -1.72414,1.75434 -1.72414,2.98629l-3.44827,0l0,-4.82759l-1.37931,0c-1.14266,0 -2.06897,-0.9263 -2.06897,-2.06896c0,-1.14266 0.92631,-2.06897 2.06897,-2.06897l1.37931,0l0,-4.82758l4.82758,0l0,-1.37931c0,-1.14266 0.92631,-2.06897 2.06897,-2.06897c1.14266,0 2.06896,0.92631 2.06896,2.06897l0,1.37931l4.82759,0l0,3.44827c-1.90443,0 -3.44828,1.54385 -3.44828,3.44828z" fill="#ffffff"/>
 </g>
</svg>