<svg width="20" height="20" xmlns="http://www.w3.org/2000/svg">

 <g>
  <title>Layer 1</title>
  <path id="svg_1" d="m5.08926,14.78126c1.74964,1.36769 3.21928,1.80602 4.90982,1.80602c1.47209,0 3.39201,-0.61306 5.23881,-1.91894c1.33253,-0.94224 2.43294,-2.31524 3.30009,-4.1309c-0.94029,-1.63098 -2.02808,-2.96711 -3.26278,-4.0121c-1.71075,-1.4479 -3.58203,-2.11262 -5.31243,-2.11262c-1.78961,0 -3.85054,0.79848 -5.60802,2.4741c-1.26536,1.20643 -2.22433,2.42005 -2.88021,3.63845c1.06583,1.7887 2.27131,3.20585 3.61472,4.25599zm4.90982,3.21874c-1.97294,0 -3.73367,-0.52515 -5.74046,-2.09385c-1.57651,-1.23235 -2.96379,-2.90118 -4.16389,-5.00105c-0.11846,-0.20727 -0.1263,-0.46231 -0.02081,-0.67687c0.73389,-1.49277 1.85118,-2.95094 3.34757,-4.37763c2.01637,-1.92245 4.41198,-2.8506 6.54128,-2.8506c2.04309,0 4.22366,0.77458 6.1847,2.43432c1.44841,1.22586 2.70247,2.80128 3.76292,4.72177c0.10941,0.19814 0.11919,0.43843 0.02625,0.6453c-0.98812,2.19942 -2.2947,3.88121 -3.92107,5.03122c-2.07569,1.46774 -4.26678,2.16739 -6.01649,2.16739zm0.23487,-3.6c-2.04345,0 -3.7,-1.65655 -3.7,-3.7c0,-2.04345 1.65655,-3.7 3.7,-3.7c2.04346,0 3.7,1.65655 3.7,3.7c0,2.04345 -1.65654,3.7 -3.7,3.7zm0,-1.4c1.27026,0 2.3,-1.02975 2.3,-2.3c0,-1.27025 -1.02974,-2.3 -2.3,-2.3c-1.27025,0 -2.3,1.02975 -2.3,2.3c0,1.27025 1.02975,2.3 2.3,2.3z" fill="#ffffff"/>
 </g>
</svg>