<?xml version="1.0" encoding="UTF-8" standalone="no" ?>
<!DOCTYPE svg PUBLIC "-//W3C//DTD SVG 1.1//EN" "http://www.w3.org/Graphics/SVG/1.1/DTD/svg11.dtd">
<svg xmlns="http://www.w3.org/2000/svg" xmlns:xlink="http://www.w3.org/1999/xlink" version="1.1" width="498.5639732804421" height="198.5027666110774" viewBox="0.23664613474988982 181.53010113571452 498.5639732804421 198.5027666110774" xml:space="preserve">
<desc>Created with Fabric.js 4.6.0</desc>
<defs>
</defs>
<g transform="matrix(3.99 0 0 3.99 432.64 285.91)" id="VuC5XvKdBDQ4sA5BcHP4d"  >
<path style="stroke: none; stroke-width: 1; stroke-dasharray: none; stroke-linecap: butt; stroke-dashoffset: 0; stroke-linejoin: round; stroke-miterlimit: 2; fill: rgb(255,255,255); fill-opacity: 0.91; fill-rule: nonzero; opacity: 1;" vector-effect="non-scaling-stroke"  transform=" translate(-159.13, -88.37)" d="M 142.662 103.442 L 146.265 94.331 L 156.668 94.331 L 151.73 80.51 L 157.905 64.896 L 175.59 111.852 L 162.548 111.852 L 159.526 103.442 L 142.662 103.442 Z" stroke-linecap="round" />
</g>
<g transform="matrix(3.99 0 0 3.99 263.36 275.66)" id="gYCqxrSt5qGSMwG36WSNX"  >
<path style="stroke: none; stroke-width: 1; stroke-dasharray: none; stroke-linecap: butt; stroke-dashoffset: 0; stroke-linejoin: round; stroke-miterlimit: 2; fill: rgb(255,255,255); fill-opacity: 0.91; fill-rule: nonzero; opacity: 1;" vector-effect="non-scaling-stroke"  transform=" translate(-116.7, -85.81)" d="M 131.535 109.284 L 150.467 62.328 L 137.916 62.329 L 124.965 92.673 L 115.755 62.329 L 106.108 62.329 L 96.22 92.673 L 89.246 78.845 L 82.935 98.288 L 89.343 109.284 L 101.695 109.284 L 110.631 82.072 L 119.15 109.284 L 131.535 109.284 Z" stroke-linecap="round" />
</g>
<g transform="matrix(3.99 0 0 3.99 67.51 275.66)" id="bZ2oOoPqeurz9yVzUtsIH"  >
<path style="stroke: none; stroke-width: 1; stroke-dasharray: none; stroke-linecap: butt; stroke-dashoffset: 0; stroke-linejoin: round; stroke-miterlimit: 2; fill: rgb(255,255,255); fill-opacity: 0.91; fill-rule: nonzero; opacity: 1;" vector-effect="non-scaling-stroke"  transform=" translate(-67.62, -85.81)" d="M 62.789 93.166 L 70.52 93.166 C 72.862 93.166 74.947 92.905 76.776 92.382 L 78.775 86.223 L 84.363 69.007 C 83.938 68.333 83.452 67.694 82.905 67.093 C 80.036 63.917 75.838 62.33 70.312 62.33 L 50.875 62.33 L 50.875 109.286 L 62.789 109.286 L 62.789 93.166 Z M 73.022 73.132 C 74.143 74.26 74.703 75.77 74.703 77.66 C 74.703 79.566 74.21 81.077 73.225 82.194 C 72.144 83.435 70.155 84.056 67.257 84.056 L 62.789 84.056 L 62.789 71.441 L 67.29 71.441 C 69.991 71.441 71.902 72.004 73.022 73.132 Z" stroke-linecap="round" />
</g>
</svg>