<svg width="20" height="20" xmlns="http://www.w3.org/2000/svg">

 <g>
  <title>Layer 1</title>
  <path id="svg_1" d="m2.84211,3.86504l0,7.43377c0,4.04676 3.20469,7.32732 7.15789,7.32732c3.9532,0 7.15789,-3.28056 7.15789,-7.32732l0,-7.43044l-7.20112,-2.42151l-7.11466,2.41818zm7.1124,-3.86504l8.54549,2.87358l0,8.42523c0,4.80553 -3.80558,8.70119 -8.5,8.70119c-4.69442,0 -8.5,-3.89566 -8.5,-8.70119l0,-8.42523l8.45451,-2.87358zm4.41919,6.48544c-0.27695,-0.2521 -0.70111,-0.22664 -0.94738,0.05687l0,0l-4.31584,4.96838l-2.78837,-3.08482c-0.2517,-0.27846 -0.67627,-0.29533 -0.94829,-0.03766c-0.27203,0.25766 -0.2885,0.69228 -0.0368,0.97074l0,0l3.29079,3.64066c0.26921,0.29784 0.73062,0.29316 0.99402,-0.01006l0,0l4.80742,-5.5343c0.24628,-0.2835 0.2214,-0.7177 -0.05555,-0.96981z" fill="#ffffff"/>
 </g>
</svg>